<svg version="1.0" xmlns="http://www.w3.org/2000/svg"
 width="60" height="60" viewBox="0 0 192.000000 192.000000"
 preserveAspectRatio="xMidYMid meet">

<g transform="translate(0.000000,192.000000) scale(0.100000,-0.100000)"
fill="#000000" stroke="none">
<path d="M805 1905 c-499 -79 -855 -548 -796 -1050 52 -451 395 -794 846 -846
605 -71 1127 451 1056 1056 -63 549 -561 927 -1106 840z m259 -500 c42 -8 103
-28 136 -46 l60 -32 0 -63 0 -64 -70 0 -70 0 0 41 c0 37 -3 41 -37 55 -52 22
-178 22 -225 0 -46 -22 -73 -74 -64 -124 9 -60 55 -95 204 -159 75 -31 156
-71 181 -87 140 -95 125 -308 -28 -385 -43 -22 -127 -41 -182 -41 -67 0 -191
30 -256 62 l-63 31 0 68 0 69 70 0 70 0 0 -43 c0 -53 16 -63 129 -79 125 -18
202 18 216 101 12 72 -23 122 -113 164 -31 14 -97 44 -147 67 -119 54 -161 84
-193 139 -37 62 -37 147 -2 209 30 53 95 98 163 111 29 6 61 13 72 15 40 8 75
6 149 -9z"/>
</g>
</svg>
